<?xml version="1.0" encoding="UTF-8" standalone="no"?>
<!-- Created with Inkscape (http://www.inkscape.org/) -->

<svg
   xmlns:dc="http://purl.org/dc/elements/1.1/"
   xmlns:cc="http://creativecommons.org/ns#"
   xmlns:rdf="http://www.w3.org/1999/02/22-rdf-syntax-ns#"
   xmlns:svg="http://www.w3.org/2000/svg"
   xmlns="http://www.w3.org/2000/svg"
   xmlns:sodipodi="http://sodipodi.sourceforge.net/DTD/sodipodi-0.dtd"
   xmlns:inkscape="http://www.inkscape.org/namespaces/inkscape"
   id="svg3336"
   version="1.1"
   inkscape:version="0.91 r13725"
   width="960"
   height="960"
   viewBox="0 0 960 960"
   sodipodi:docname="logo.svg">
  <metadata
     id="metadata3342">
    <rdf:RDF>
      <cc:Work
         rdf:about="">
        <dc:format>image/svg+xml</dc:format>
        <dc:type
           rdf:resource="http://purl.org/dc/dcmitype/StillImage" />
        <dc:title></dc:title>
      </cc:Work>
    </rdf:RDF>
  </metadata>
  <defs
     id="defs3340" />
  <sodipodi:namedview
     pagecolor="#ffffff"
     bordercolor="#666666"
     borderopacity="1"
     objecttolerance="10"
     gridtolerance="10"
     guidetolerance="10"
     inkscape:pageopacity="0"
     inkscape:pageshadow="2"
     inkscape:window-width="1920"
     inkscape:window-height="1027"
     id="namedview3338"
     showgrid="false"
     showborder="false"
     inkscape:zoom="0.44791667"
     inkscape:cx="779.6562"
     inkscape:cy="218.848"
     inkscape:window-x="1912"
     inkscape:window-y="-8"
     inkscape:window-maximized="1"
     inkscape:current-layer="g3346" />
  <g
     id="g3346"
     transform="translate(-421.95349,-51.348837)">
    <path
       style="fill:#dc914a"
       d="m 1154.8777,641.78749 c -0.8213,-1.53474 -1.2134,-12.78924 -1.3172,-37.80993 l -0.1478,-35.62475 3.3979,-7.88118 c 1.8689,-4.33465 5.2439,-10.63465 7.5,-14 3.6761,-5.48342 4.9848,-6.5518 12.6021,-10.28832 4.675,-2.29323 12.1694,-5.42259 16.6542,-6.95415 6.8926,-2.35381 8.5559,-2.60166 10.75,-1.60194 2.8325,1.29057 3.4193,4.56153 1.314,7.32402 -0.67,0.87913 -8.4649,7.0155 -17.3219,13.63638 -16.6314,12.43245 -17.3561,13.28502 -17.3827,20.44862 -0.01,2.02588 -1.1189,9.67588 -2.4698,17 -3.3425,18.12176 -5.5237,35.36626 -5.6435,44.61779 -0.1343,10.37537 -0.8472,12.62464 -4.1226,13.00871 -1.8914,0.22178 -2.9758,-0.31157 -3.8127,-1.87525 z"
       id="path3350"
       inkscape:connector-curvature="0"
       sodipodi:nodetypes="sscssssssscssss" />
    <path
       style="fill:#7d7d7d;fill-opacity:1"
       d="m 1219.5328,981.84903 c -2.7855,-1.6622 -4.001,-4.74945 -17,-43.17653 -13.3779,-39.54742 -14.1606,-41.51443 -17.614,-44.26936 -3.0216,-2.41041 -6.874,-3.60964 -23.5,-7.31539 -25.5546,-5.69583 -29.1294,-6.12812 -33.5051,-4.05172 -1.8972,0.90031 -16.4525,14.94823 -32.6227,31.4857 -16.3938,16.76607 -30.5491,30.42011 -32.2802,31.13717 -3.7632,1.55876 -5.3431,0.80273 -43.4476,-20.79172 -18.0928,-10.25346 -26.41719,-15.51898 -27.44503,-17.36015 -1.33933,-2.39912 -1.23754,-3.59751 1.10418,-13 1.41873,-5.69649 4.03594,-16.20726 5.81603,-23.35726 13.55292,-54.43742 13.30492,-53.03017 10.36202,-58.79966 -2.0253,-3.9703 -31.76386,-34.57192 -35.86759,-36.90842 -1.65,-0.93945 -4.42815,-1.72695 -6.17367,-1.75 -1.74552,-0.0231 -17.27052,3.11985 -34.5,6.98424 -17.22948,3.86439 -35.54679,7.9701 -40.70512,9.1238 -12.0802,2.70182 -14.45042,1.83469 -18.60319,-6.80587 -1.54482,-3.21425 -3.35848,-6.51909 -4.03036,-7.34409 -0.67189,-0.825 -6.90647,-12.60471 -13.85463,-26.17713 -14.31482,-27.96231 -14.83,-29.89349 -9.38302,-35.17287 1.7875,-1.7325 13.14999,-12.37385 25.24999,-23.64745 34.93347,-32.54759 37.23751,-34.93052 38.05188,-39.35481 0.78847,-4.2836 -5.64291,-42.2393 -8.28763,-48.91064 -0.82045,-2.06959 -2.80606,-4.69877 -4.41246,-5.84263 -2.65966,-1.89385 -57.16087,-22.41566 -76.35178,-28.7494 -4.4,-1.45216 -8.23209,-2.94738 -8.51576,-3.3227 -1.23243,-1.63061 2.21544,-42.15544 5.60019,-65.82237 1.68089,-11.75315 2.91008,-16.33559 4.80334,-17.90685 1.14512,-0.95038 16.75416,-4.12596 41.61222,-8.46582 21.96115,-3.8341 42.78661,-7.80501 45.57209,-8.6895 5.65801,-1.79663 8.94565,-6.63599 15.92258,-23.43783 8.12921,-19.57675 8.84201,-21.89178 8.04639,-26.13281 -0.59827,-3.18907 -27.85225,-40.71508 -39.48521,-54.36719 -2.5776,-3.025 -6.56964,-8.06829 -8.8712,-11.2073 -6.9467,-9.47436 -6.97552,-9.3967 12.46175,-33.58093 9.15552,-11.39147 20.06802,-25.04814 24.25,-30.34815 7.62499,-9.66349 10.30222,-11.8681 14.40065,-11.85842 1.21162,0.003 7.15295,2.07153 13.20295,4.59704 6.05,2.5255 15.275,6.37338 20.5,8.55083 13.34267,5.56039 46.09889,18.54124 48.49999,19.2199 3.7912,1.07156 9.2148,-1.11207 21.0661,-8.4815 14.5548,-9.0506 19.9999,-14.01864 20.9516,-19.11594 0.3824,-2.04845 -0.011,-12.17345 -0.8748,-22.5 -0.8636,-10.32654 -2.3491,-29.45332 -3.3011,-42.50394 l -1.731,-23.72842 2.387,-2.54083 c 1.3129,-1.39745 5.1129,-3.40473 8.4446,-4.46062 3.3317,-1.05589 20.5842,-6.86892 38.3388,-12.91785 27.8513,-9.4888 32.6758,-10.86053 35.1561,-9.99589 2.0777,0.7243 5.3091,4.5193 11.6544,13.68709 40.067,57.88992 42.2158,60.79436 46.3592,62.66279 3.6014,1.62398 5.7614,1.74215 20.2252,1.10652 8.9062,-0.3914 16.9918,-1.13905 17.9679,-1.66144 0.9761,-0.52239 2.8589,-2.40626 4.1839,-4.18637 1.9011,-2.55403 23.0515,-41.50226 38.4126,-70.73657 2.9796,-5.67047 5.6993,-8 9.34,-8 2.3875,0 65.5701,14.74265 76.9794,17.96191 1.9579,0.55245 4.5527,2.06128 5.7662,3.35296 2.148,2.2864 2.2475,3.47012 3.7643,44.76681 0.8569,23.33008 1.99,44.09864 2.5181,46.15237 1.4456,5.62282 4.2233,8.07846 17.8915,15.81742 11.3338,6.41721 12.9231,7.04047 17.0349,6.68048 3.6122,-0.31624 10.7338,-3.86072 35,-17.41967 46.5367,-26.00278 46.0518,-25.75832 49.4167,-24.9138 1.6018,0.40203 4.9102,2.83934 7.3521,5.41624 2.4419,2.57691 15.635,16.01173 29.318,29.85518 23.3773,23.65125 24.8783,25.39046 24.8783,28.82552 0,4.00882 -1.1256,6.11105 -19.8128,37.00458 -24.9103,41.18126 -24.1872,39.83485 -24.1872,45.03745 0,3.91825 1.0989,6.85488 6.1251,16.36872 6.3374,11.99561 9.5789,16.33337 13.8897,18.58716 2.5298,1.32263 27.6862,3.48765 63.9852,5.50673 23.2501,1.29326 26.4244,1.70987 28.9896,3.80475 1.702,1.38992 3.6006,8.70226 10.5431,40.60564 4.657,21.40075 8.4673,40.32725 8.4673,42.05887 0,5.79488 3.7574,3.51687 -52.0806,31.57519 -34.417,17.29441 -32.2781,14.91658 -33.9334,37.72359 -1.7006,23.43099 -2.9347,21.50417 28.6139,44.67555 47.6107,34.96848 48.3917,35.65131 46.8224,40.93843 -0.5985,2.01676 -9.1921,26.01525 -19.3789,54.11792 -7.0417,19.42604 -8.4812,22.3208 -11.4735,23.07182 -2.4025,0.60298 -15.5396,-0.61594 -60.0699,-5.57352 -21.5398,-2.39804 -29.0848,-2.60024 -32.859,-0.88058 -2.4894,1.13426 -18.981,22.22991 -25.0795,32.08118 -3.126,5.04961 -2.3822,10.68153 3.4074,25.8011 2.8433,7.425 6.6887,17.55 8.5454,22.5 1.8567,4.95 6.3256,16.83926 9.9308,26.42058 3.6052,9.58132 6.539,18.13132 6.5195,19 -0.073,3.27519 -2.8027,6.25892 -12.4885,13.65335 -39.9332,30.48607 -51.0001,38.42607 -53.5588,38.42607 -3.3482,0 -6.8084,-2.47017 -31.5178,-22.5 -40.8888,-33.14506 -39.9738,-32.50005 -46.0998,-32.49992 -4.2262,8e-5 -41.0526,13.6805 -45.2524,16.81054 -4.4454,3.31308 -5.8121,7.17494 -10.5066,29.68938 -2.523,12.1 -6.4103,30.775 -8.6384,41.5 -5.04,24.26019 -4.606,23.67659 -19.0328,25.59298 -14.0921,1.87194 -46.5677,4.40776 -56.3695,4.40156 -5.8967,-0.004 -8.7887,-0.47574 -11,-1.79528 z m 39.4593,-169.73436 c 72.8897,-9.02391 137.0741,-49.15544 177.7896,-111.16365 15.3673,-23.40372 29.1143,-56.66451 34.6621,-83.86465 4.6826,-22.95822 5.9521,-55.56712 3.0928,-79.44273 -12.3447,-103.08003 -89.8581,-188.91801 -190.9697,-211.47892 -19.3829,-4.32488 -32.298,-5.69853 -54.0341,-5.74708 -25.4558,-0.0568 -39.2761,1.61986 -63.5,7.70403 -39.7737,9.98971 -81.2701,33.70536 -111.0625,63.47339 -39.507,39.47462 -63.42985,87.47988 -71.5388,143.55471 -2.38518,16.49394 -2.4085,47.77325 -0.0477,64 5.39889,37.10892 17.1171,69.43119 35.8957,99.0106 40.1189,63.19427 104.5816,104.31093 178.7533,114.01548 13.8269,1.8091 46.1141,1.7767 60.9593,-0.0612 z m -28.2093,-22.09063 c -2.6218,-0.78044 -2.1045,-2.66533 1.2563,-4.57776 3.536,-2.01208 3.4485,-0.47619 1.4691,-25.78518 -1.0484,-13.40554 -1.9502,-19.91476 -2.8892,-20.85374 -2.9814,-2.98135 -10.5605,1.30518 -15.6617,8.85775 -1.0515,1.55692 -2.1362,2.11739 -3.2618,1.68544 -1.4163,-0.54348 -1.5824,-1.53239 -1.0369,-6.17396 0.5511,-4.68865 0.4047,-5.52682 -0.9651,-5.52682 -2.5854,0 -4.3004,3.65868 -8.1703,17.43005 -1.9984,7.11152 -4.46,14.53652 -5.4703,16.5 -7.2515,14.09301 -24.805,16.06825 -37.0829,4.1728 -8.2732,-8.01554 -8.4012,-11.19282 -1.4271,-35.41739 1.9194,-6.66725 3.4899,-13.00454 3.4899,-14.08286 0,-2.39454 -6.5534,-8.6026 -9.0812,-8.6026 -1.2032,0 -5.2736,4.76231 -11.8873,13.90789 -11.3249,15.66032 -15.1777,19.52175 -20.4682,20.51425 -8.3067,1.55835 -21.817,-5.99856 -25.2002,-14.09549 -2.6872,-6.43136 -0.9458,-16.12158 3.1817,-17.70547 3.0515,-1.17098 5.3857,-0.61965 6.5446,1.54585 0.9703,1.81293 0.707,3.0041 -1.6114,7.28992 -2.7082,5.00652 -2.7334,5.20249 -1.1084,8.62691 3.487,7.34846 13.2326,9.58437 18.7531,4.3025 2.499,-2.39101 19.7886,-25.78148 22.3085,-30.18034 0.4076,-0.71168 0.028,-2.38335 -0.845,-3.71481 -1.9276,-2.94191 -2.0241,-4.49121 -0.2798,-4.49121 1.8243,0 15.5576,9.806 17.0045,12.14172 0.7085,1.14379 4.4048,2.9374 9.1456,4.43787 9.3254,2.95152 11.0755,4.07449 9.4334,6.05309 -0.6241,0.75203 -2.1685,1.36732 -3.432,1.36732 -2.574,0 -3.1049,1.28745 -8.4225,20.42343 -3.449,12.41199 -3.7984,18.47636 -1.3072,22.69352 1.9959,3.37877 8.5713,6.89302 12.8375,6.86109 5.202,-0.0389 11.1326,-3.46353 13.2532,-7.65288 2.8458,-5.62231 10.1754,-32.17584 9.4236,-34.13973 -0.3549,-0.92699 -1.5671,-2.44099 -2.6939,-3.36445 -1.5267,-1.25133 -1.7611,-1.97182 -0.9201,-2.82852 0.8491,-0.86486 2.8301,-0.65872 8,0.83248 4.2744,1.23288 10.166,2.02111 15.5882,2.08551 11.3472,0.13477 31.4071,-1.63873 33.9542,-3.00192 1.5571,-0.83333 2.421,-0.68289 3.9323,0.68481 1.8636,1.68662 2.6999,1.42449 22.1668,-6.94846 11.1265,-4.78567 20.9219,-8.68854 21.7676,-8.67305 0.8457,0.0155 3.6582,2.18113 6.25,4.81252 7.0159,7.12301 6.0173,10.68814 -1.7158,6.12552 -5.1501,-3.03866 -10.7478,-2.7524 -19.753,1.01016 -4.2247,1.76515 -8.1317,3.75214 -8.6823,4.41553 -0.6929,0.83491 -0.1179,3.29934 1.8681,8.00672 4.0655,9.63644 4.3923,9.93511 8.8446,8.08282 5.4661,-2.27408 6.6508,-3.91541 6.6508,-9.21448 0,-7.33241 2.3242,-6.09204 7.1787,3.8311 5.2767,10.78631 6.072,13.73299 3.9282,14.55563 -1.041,0.39949 -2.6674,-0.52112 -4.6275,-2.61947 -2.6887,-2.8782 -3.466,-3.17595 -7.0401,-2.69656 -4.4339,0.5947 -6.9393,2.19075 -6.9393,4.42057 0,2.49905 5.1429,14.70259 7.0314,16.68475 1.7566,1.84376 1.9794,1.80126 9.8036,-1.8704 10.3025,-4.8347 13.9117,-8.55831 16.1221,-16.63318 0.9447,-3.45104 2.2103,-6.43886 2.8125,-6.6396 2.0705,-0.69014 3.5419,4.22048 3.6361,12.13427 l 0.094,7.92744 -11.5,4.66996 c -6.325,2.56848 -13.525,5.72106 -16,7.00573 -10.7312,5.57014 -22.0622,6.96493 -16.1215,1.98447 1.8948,-1.58855 2.2683,-2.65201 1.8363,-5.22969 -0.7601,-4.53545 -15.2329,-36.69815 -17.5616,-39.02683 -2.6409,-2.64098 -6.643,-1.48125 -5.6511,1.63759 2.7323,8.59145 0.995,10.53119 -4.2915,4.79135 -2.0408,-2.2159 -4.9774,-4.5034 -6.5257,-5.08333 -3.4546,-1.29396 -8.3698,-1.37325 -9.1275,-0.14723 -0.8969,1.4512 2.5461,44.46316 3.6696,45.84281 0.5598,0.6875 1.5827,1.25 2.273,1.25 0.6903,0 1.7658,0.61529 2.3899,1.36732 1.9729,2.37724 -1.2845,3.79248 -9.6033,4.17233 -4.2826,0.19555 -8.5741,0.12113 -9.5366,-0.16538 z m 115.9566,-38.00105 c -0.3448,-0.34474 0.03,-1.89676 0.8326,-3.44895 1.4189,-2.74389 1.3241,-2.98306 -3.4197,-8.62322 -2.6836,-3.19058 -9.8601,-10.68201 -15.9479,-16.64764 l -11.0687,-10.84658 -4.0515,0.68448 c -3.1673,0.53512 -4.0514,0.37208 -4.0514,-0.74711 0,-1.83582 24.7861,-25.06299 29.1779,-27.34271 4.554,-2.36398 11.2179,-2.23911 14.6104,0.27379 7.382,5.46799 9.3106,13.9528 4.7117,20.72958 -1.375,2.02618 -2.5,4.06583 -2.5,4.53256 0,1.37156 2.8318,2.09358 13.9259,3.55063 9.0635,1.19038 10.9335,1.1797 13.9475,-0.0796 5.1135,-2.13654 6.0916,-0.40844 2.6114,4.61355 -1.5618,2.25366 -3.6708,4.54239 -4.6866,5.08606 -1.2971,0.69418 -6.9227,0.21102 -18.8943,-1.62275 -17.6238,-2.6996 -19.9039,-2.55304 -19.9039,1.27932 0,1.82696 8.2829,11.71942 11.6719,13.93994 1.9698,1.2907 2.887,1.36183 5.0212,0.38941 7.188,-3.27509 2.9348,6.31389 -5.3196,11.99304 -4.3186,2.97127 -5.5571,3.39599 -6.6669,2.2862 z m -4.9557,-36.02531 c 9.2604,-7.58816 12.4415,-15.08645 8.4769,-19.98087 -4.1016,-5.06344 -10.3579,-5.74922 -15.4011,-1.68818 -6.086,4.90086 -10.8267,9.71189 -10.8267,10.9875 0,1.21596 11.6791,14.33364 12.7617,14.33364 0.2928,0 2.5379,-1.64344 4.9892,-3.65209 z m -270.0842,-0.0146 c -0.3667,-0.36664 -0.6667,-1.92003 -0.6667,-3.45194 0,-2.16491 -0.9767,-3.45725 -4.3849,-5.80217 -10.6406,-7.32096 -15.6604,-18.21445 -13.5491,-29.40303 1.2845,-6.80739 3.7281,-11.47427 8.3962,-16.03602 15.7277,-15.36923 40.7912,-10.32867 48.9938,9.85321 1.303,3.2061 3.0835,6.22904 3.9566,6.71765 2.9342,1.64206 1.8094,5.63731 -3.0494,10.83183 -6.8338,7.30585 -10.8458,6.44868 -7.2213,-1.54284 3.8523,-8.49371 1.617,-18.64586 -5.0814,-23.07865 -10.9114,-7.22082 -28.9875,-1.23568 -35.4529,11.73869 -8.4791,17.01532 5.8651,35.95236 19.0777,25.18604 3.7612,-3.06487 4.0973,-4.11663 3.1466,-9.84608 -0.6691,-4.03233 2.7019,-1.89346 7.8803,5 2.8922,3.85 5.5348,7.8328 5.8725,8.85066 0.933,2.81234 -0.7648,3.7851 -4.2863,2.45586 -2.931,-1.10634 -3.5922,-0.86578 -11.0162,4.00825 -7.3578,4.83049 -10.9993,6.13479 -12.6155,4.51856 z m 323.2274,-15.58331 c -0.058,-0.6875 -0.028,-2.45325 0.067,-3.92388 0.1588,-2.44993 -1.3152,-3.56239 -17.5997,-13.28255 -18.9759,-11.32669 -21.6271,-12.4835 -24.4991,-10.68986 -2.4204,1.51153 -4.8635,1.45939 -4.8595,-0.10371 0,-0.6875 2.1653,-4.85 4.8079,-9.25 5.08,-8.45838 7.8607,-10.29233 7.458,-4.9188 -0.1687,2.25197 0.5041,3.76915 2.5,5.63747 3.5937,3.36391 35.1356,21.78133 37.303,21.78133 0.9256,0 2.2432,-0.675 2.9279,-1.5 1.6274,-1.96087 4,-1.92414 4,0.0619 0,5.98558 -11.6502,21.56424 -12.1059,16.18807 z m -375.8941,-67.87073 c -3.2511,-1.29258 -7.7853,-5.62611 -9.6764,-9.24819 -0.8239,-1.5779 -1.6227,-5.96641 -1.7751,-9.75225 -0.2737,-6.79591 -0.2362,-6.90871 2.9552,-8.88108 3.0784,-1.90258 7.4963,-2.70936 7.4963,-1.36895 0,0.34584 -1.575,2.37214 -3.5,4.50288 -8.5834,9.50078 -1.2271,21.40412 12.0017,19.42033 5.7121,-0.85657 10.5613,-4.18712 12.8287,-8.81104 2.4555,-5.00749 1.4861,-8.89989 -3.5874,-14.40392 -2.2195,-2.40788 -3.7439,-4.66943 -3.3877,-5.02568 1.1677,-1.1677 5.926,2.11078 8.7904,6.05669 5.4808,7.54994 5.0181,15.32915 -1.3206,22.20583 -5.4527,5.91551 -13.8864,8.06408 -20.8251,5.30538 z m 419,-2.85671 c -1.0828,-1.37359 -4.9766,-2.595 -14,-4.39156 -11.0006,-2.19021 -12.7636,-2.31868 -14.6978,-1.07099 -1.2794,0.8253 -2.4407,1.0249 -2.7789,0.47765 -0.7039,-1.13897 3.1449,-20.5185 4.6574,-23.45097 3.2601,-6.32065 8.4628,-7.44043 13.7804,-2.96595 2.894,2.43514 3.2414,2.50596 4.9055,1 1.1047,-0.99974 3.5529,-1.62074 6.3896,-1.62074 3.8208,0 4.968,0.46517 6.7819,2.75 1.9852,2.50048 2.136,3.56663 1.6617,11.75 -0.5018,8.65878 -3.0113,19.54018 -4.4885,19.46269 -0.3912,-0.0205 -1.3863,-0.89358 -2.2113,-1.94013 z m 2.9395,-14.2089 c 1.7096,-6.75305 0.6397,-10.26275 -3.6224,-11.88322 -2.1848,-0.83065 -3.2008,-0.66353 -5.2623,0.86559 -2.9407,2.18128 -5.2838,8.28403 -4.8516,12.63638 0.3326,3.34911 2.7991,4.53825 8.7968,4.24103 3.3845,-0.16771 3.5475,-0.36114 4.9395,-5.85978 z m -17.827,0.43634 c 3.2016,-8.28238 1.4794,-14.25 -4.1125,-14.25 -3.902,0 -6.2179,3.58257 -6.7921,10.50726 -0.4116,4.96285 -0.2813,5.35339 1.9253,5.7717 6.1789,1.17133 7.8919,0.78425 8.9793,-2.02896 z m -179.6125,13.34785 c -13.1407,-4.16676 -22.159,-12.35336 -40.1323,-36.43117 -12.2272,-16.37994 -13.3677,-17.96436 -13.3677,-18.57043 0,-0.29545 4.784,-4.2303 10.6311,-8.7441 l 10.6312,-8.20692 15.6837,0.25298 c 12.0658,0.19462 15.928,-0.0528 16.7428,-1.07262 0.5825,-0.72907 2.9388,-4.95433 5.2363,-9.38946 3.4806,-6.71908 4.2937,-9.40576 4.876,-16.11039 l 0.6989,-8.04653 7,-5.62695 c 3.85,-3.09482 7.675,-5.59763 8.5,-5.5618 1.9169,0.0833 22.7257,25.23713 30.2003,36.50634 7.4657,11.25602 10.3004,19.50107 10.2001,29.66872 -0.1081,10.96411 -4.4162,19.32996 -15.6935,30.47513 -17.3444,17.14126 -37.2965,25.26801 -51.2069,20.8572 z m -214.3583,-38.14481 c -1.1019,-1.40083 -2.2595,-3.87583 -2.5725,-5.5 -0.3131,-1.62417 -0.8299,-4.30304 -1.1486,-5.95304 -1.0365,-5.36596 -7.4206,-3.50716 -7.4206,2.16057 0,2.72053 0.6381,3.62129 4.4125,6.22893 1.1891,0.8215 1.6738,1.94337 1.2814,2.96589 -0.8524,2.22117 -2.0871,2.07065 -5.2365,-0.63839 -5.0636,-4.35553 -4.3333,-16.08562 1.1573,-18.58728 1.3637,-0.62135 5.5979,-1.12972 9.4093,-1.12972 6.2515,0 7.0871,-0.23995 8.5359,-2.45104 1.8155,-2.77085 1.1985,-6.0921 -1.3776,-7.41495 -0.9253,-0.47513 -4.7766,-1.168 -8.5585,-1.53972 -5.6061,-0.55101 -7.2076,-0.37593 -8.6704,0.9479 -1.6635,1.50548 -1.8703,1.48165 -2.8383,-0.32712 -0.5742,-1.07298 -2.396,-2.22125 -4.0483,-2.55172 -4.528,-0.9056 -7.0668,-3.99228 -7.0668,-8.59192 0,-5.45858 4.1577,-9.42996 5.6905,-5.43551 0.3453,0.89976 0.1033,2.36226 -0.5377,3.25 -2.1853,3.02631 -2.4452,4.31531 -1.0485,5.19969 2.2403,1.41855 6.9041,1.05604 7.5341,-0.58561 0.804,-2.0951 2.8635,-1.86916 4.4896,0.49254 2.0028,2.9087 15.0383,4.07193 17.7841,1.58698 2.6928,-2.43688 3.4525,-0.56512 2.5354,6.24613 -0.4202,3.12089 -0.6602,6.89967 -0.5332,8.39728 0.1269,1.49761 -0.5739,4.08511 -1.5574,5.75 -1.6951,2.86957 -1.6988,3.17818 -0.072,5.93136 0.9436,1.59736 1.7156,4.43751 1.7156,6.31144 0,7.06788 -7.7321,10.48285 -11.8582,5.23731 z m 6.8604,-3.95552 c 1.3709,-1.65181 0.7198,-6.92277 -1.1305,-9.15221 -1.2353,-1.48847 -5.4566,-1.82581 -6.2751,-0.50146 -0.6493,1.05064 1.253,8.21625 2.6299,9.90615 1.3663,1.67688 3.2574,1.5769 4.7757,-0.25248 z m 401.1404,4.1541 c -1.3128,-1.39735 -2.7331,-4.94088 -3.5073,-8.75 -1.0474,-5.15361 -1.6992,-6.46073 -3.3435,-6.70484 -2.4732,-0.36717 -5.2917,2.22919 -5.2917,4.87465 0,1.98288 2.2251,4.5877 5.5809,6.5332 1.6405,0.95109 1.7155,1.33332 0.5398,2.75 -1.9168,2.3095 -3.6559,2.05176 -5.9652,-0.88407 -4.5324,-5.76202 -3.1766,-16.37145 2.3612,-18.47692 1.4375,-0.5465 5.9043,-0.99364 9.9264,-0.99364 6.464,0 7.4905,-0.2612 8.8423,-2.25 1.4655,-2.15625 1.5611,-2.1699 2.295,-0.32772 0.5008,1.25711 0.065,3.16027 -1.2597,5.5 -1.9894,3.51385 -1.9926,3.64913 -0.1761,7.57772 2.1119,4.56743 1.6939,7.94282 -1.393,11.25 -2.7028,2.89557 -5.8301,2.85983 -8.6091,-0.0984 z m 6.6762,-7.47239 c 0.4157,-4.33308 -2.2011,-8.40766 -5.1319,-7.9905 -2.7977,0.39822 -3.2685,3.48333 -1.2638,8.28128 1.2182,2.91548 2.0045,3.60798 3.8062,3.35227 1.7593,-0.24968 2.3426,-1.07035 2.5895,-3.64305 z m -269.2204,-14.34235 c -1.9432,-2.77432 -1.1085,-4.23759 5.3181,-9.32289 2.79,-2.20769 9.1296,-7.2801 14.088,-11.27201 l 9.0153,-7.25802 1.9864,3.25802 c 1.0925,1.79191 1.9881,3.79296 1.9902,4.44679 0.01,1.75566 -26.649,22.31123 -28.9311,22.31123 -1.0735,0 -2.6336,-0.9734 -3.4669,-2.16312 z m 248.4957,-7.66118 c -0.5369,-1.00337 -0.93,-3.36587 -0.8733,-5.25 0.057,-1.88414 -0.5179,-4.88658 -1.2767,-6.67211 -1.2132,-2.85441 -1.1839,-3.44224 0.2422,-4.86832 2.2099,-2.20989 3.8138,-0.94031 3.8138,3.01876 0,5.29962 2.5825,6.85566 9.9875,6.01787 4.2073,-0.476 6.7823,-1.33179 8.0269,-2.66771 2.6327,-2.8259 3.9856,-1.36465 3.9856,4.30483 0,5.30828 -0.1312,5.47632 -3.0542,3.91195 -2.9987,-1.60482 -14.8876,-0.0618 -16.8084,2.1815 -1.9852,2.31856 -2.8124,2.32331 -4.0434,0.0232 z m -209.0885,-17.39183 -3.9865,-6.28387 -0.01,-23.25 -0.01,-23.25 18,0 18,0 -0,22.75 -0.01,22.75 -3.4063,6.5 -3.4064,6.5 -10.593,0.28387 -10.593,0.28387 -3.9865,-6.28387 z m 22.1584,1.09941 c 4.017,-2.8603 5.5467,-8.60846 3.3972,-12.76514 -1.815,-3.50974 -6.91,-7.11066 -10.0611,-7.11066 -2.7426,0 -8.1227,3.41899 -9.5362,6.06012 -2.9669,5.54385 -0.4058,12.94601 5.3617,15.49596 3.6707,1.62291 6.9034,1.12174 10.8384,-1.68028 z m -208.7487,-0.30469 c -7.7757,-3.38554 -10.115,-13.47694 -4.514,-19.47283 2.8147,-3.01313 8.2257,-4.32744 9.4775,-2.30203 0.2732,0.44206 -0.085,4.15456 -0.7953,8.25 -0.7106,4.09545 -1.106,7.78377 -0.8787,8.19627 1.018,1.84718 7.4612,0.675 9.9456,-1.80934 2.5565,-2.55649 2.7989,-5.21351 0.8842,-9.69066 -1.2311,-2.87858 1.9835,-2.10333 3.305,0.79705 1.6916,3.71268 1.4191,7.51654 -0.799,11.1544 -3.5074,5.75233 -10.1438,7.69917 -16.6253,4.87714 z m 0.144,-12.12479 c 0.8104,-5.40432 0.1594,-6.41404 -2.5531,-3.95935 -1.9254,1.74251 -2.7296,6.44872 -1.3394,7.83888 1.7839,1.7839 3.2645,0.3082 3.8925,-3.87953 z m -16.1751,-2.77461 c -1.3046,-2.7358 -1.4716,-3.99163 -0.6413,-4.82199 2.9799,-2.9799 5.8304,3.10805 3.3159,7.08201 -0.707,1.11746 -1.3049,0.61223 -2.6746,-2.26002 z m 242.6159,-23.96208 c 0,-5.30108 0.1271,-5.54857 4.6641,-9.08334 2.5653,-1.99857 5.6995,-3.63377 6.9648,-3.63377 2.6203,0 4.7805,3.21737 3.8861,5.78777 -0.5136,1.47587 -12.223,11.09836 -14.6581,12.04556 -0.4713,0.18334 -0.8569,-2.11896 -0.8569,-5.11622 z m -187.4537,-10.64217 c -0.3144,-0.50879 -0.051,-2.0683 0.5858,-3.46558 0.9143,-2.00652 0.8644,-2.95594 -0.2373,-4.51693 -1.5913,-2.25494 -25.4465,-22.04916 -31.2108,-25.8978 -3.7252,-2.48716 -3.8861,-2.50644 -6.7579,-0.81002 -2.5913,1.5307 -3.0117,1.55588 -3.5276,0.21134 -0.82,-2.13691 8.3265,-13.59595 10.8522,-13.59595 1.0756,0 10.4466,2.925 20.8244,6.5 10.3778,3.575 19.6045,6.5 20.5038,6.5 2.2208,0 2.0216,-0.4161 -9.5789,-20 -5.5273,-9.33125 -10.3101,-17.64449 -10.6283,-18.47387 -0.7568,-1.97202 8.6081,-13.65604 10.6283,-13.26045 1.0557,0.20671 1.4035,1.27356 1.1743,3.60163 -0.416,4.22536 0.039,4.72188 18.1521,19.7947 14.2251,11.83755 18.4109,14.19009 20.1736,11.33799 0.9999,-1.6179 3.5,-1.1447 3.5,0.66245 0,2.55766 -5.7224,10.88844 -9.4127,13.70315 -3.8639,2.94716 -6.1527,1.9695 -4.3992,-1.87911 0.6035,-1.32455 0.6754,-2.90205 0.1727,-3.79182 -1.0103,-1.78827 -26.4079,-22.69467 -27.5701,-22.69467 -1.7379,0 -0.2303,2.98266 12.1124,23.9639 5.0033,8.50514 9.0969,15.98754 9.0969,16.62756 0,0.64001 -0.6755,1.72428 -1.5011,2.4095 -1.2315,1.02206 -5.279,-0.058 -22.5319,-6.01236 -11.5669,-3.99201 -21.2551,-7.03377 -21.5295,-6.75946 -0.606,0.606 9.2444,9.81169 18.5052,17.29405 6.5428,5.28637 11.0614,6.89729 12.5573,4.47681 0.9648,-1.56105 3.5,-1.1734 3.5,0.53518 0,2.08856 -2.6459,6.20843 -6.8813,10.71482 -3.5106,3.73512 -5.4853,4.58388 -6.5724,2.82494 z m 309.6913,-16.18637 c -6.2695,-3.10335 -11.9949,-10.1239 -14.0308,-17.20461 -1.394,-4.84847 -2.2107,-6.11438 -4.4568,-6.90797 -1.5125,-0.5344 -2.75,-1.53754 -2.75,-2.22919 0,-0.69165 2.7399,-4.24763 6.0886,-7.90218 8.4646,-9.23766 10.8118,-8.84729 8.1495,1.35538 -1.9192,7.35459 -1.2706,17.14003 1.3704,20.67744 7.3121,9.79377 19.3915,8.9641 19.3915,-1.33189 0,-1.88809 -1.6524,-7.80074 -3.672,-13.13922 -6.012,-15.89168 -5.4915,-25.00194 1.6393,-28.6894 9.2016,-4.75834 21.7769,1.72935 27.1039,13.98307 1.1955,2.75 3.2736,5.90412 4.618,7.00915 2.1031,1.72854 2.3017,2.38464 1.4223,4.69772 -1.4595,3.83856 -8.0117,10.79313 -10.1688,10.79313 -2.8669,0 -3.1404,-1.51221 -1.3729,-7.59196 2.66,-9.15006 0.329,-17.66981 -5.8683,-21.44852 -3.7853,-2.308 -7.5713,-2.50688 -10.2604,-0.53901 -3.0134,2.20521 -2.3414,9.42365 1.8745,20.13622 4.5854,11.65152 5.3987,17.76017 2.9854,22.42334 -3.9851,7.70032 -13.3675,10.2129 -22.0634,5.9085 z m -255.2376,-43.05983 c 0,-0.64419 0.7652,-2.01674 1.7003,-3.0501 2.3285,-2.57293 1.5501,-4.32702 -9.6644,-21.77864 -11.546,-17.96743 -13.5201,-20.20025 -17.5063,-19.80065 -5.4886,0.5502 -4.0079,-2.39752 3.7145,-7.39467 3.9907,-2.58243 7.9853,-4.97079 8.8769,-5.30747 2.1498,-0.81187 3.1933,1.99708 1.3196,3.55212 -2.94,2.43998 -2.1402,4.23945 11.3122,25.45067 5.2322,8.25 10.2321,15.57547 11.1107,16.27882 0.9172,0.73419 2.7365,1.02867 4.2719,0.69145 1.5343,-0.33699 2.9726,-0.10459 3.3742,0.54521 1.0381,1.67971 -2.9251,5.39433 -9.4865,8.89155 -6.1027,3.2527 -9.0231,3.87467 -9.0231,1.92171 z m 190.4224,-12.57874 c -8.9264,-5.35198 -10.1497,-7.75 -3.9533,-7.75 l 3.969,0 10.781,-18.94663 c 5.9295,-10.42065 10.7809,-19.65802 10.7809,-20.5275 0,-0.86947 -0.7271,-2.61891 -1.6157,-3.88763 -3.0792,-4.39615 0.024,-4.16467 8.6399,0.64442 6.217,3.47021 8.4758,5.26224 8.4758,6.7242 0,1.57124 -0.6703,1.99314 -3.1667,1.99314 -1.7416,0 -3.3873,0.225 -3.657,0.5 -0.8545,0.87135 -12.2784,20.46217 -17.2448,29.57317 -4.7246,8.66734 -4.7579,8.79299 -3.0994,11.68273 1.736,3.02479 1.4755,4.7441 -0.7187,4.7441 -0.6977,0 -4.8336,-2.1375 -9.191,-4.75 z m -162.7685,-6.92946 c -1.3368,-1.33679 -0.5801,-3.03313 1.8461,-4.13859 1.6082,-0.73274 2.4947,-1.94935 2.485,-3.41051 -0.023,-3.53738 -9.7514,-40.78503 -11.0654,-42.36833 -0.6441,-0.77611 -2.492,-1.75337 -4.1063,-2.1717 -1.6144,-0.41833 -3.0203,-1.20403 -3.1243,-1.746 -0.1858,-0.96858 6.7652,-3.61212 12.9672,-4.93163 4.0514,-0.86194 4.6731,-0.20109 18.0864,19.22765 10.4503,15.13692 11.8951,16.9142 12.9181,15.89118 0.2903,-0.29022 1.5349,-10.02487 2.7659,-21.63257 1.2311,-11.6077 2.6512,-21.50544 3.1558,-21.99498 1.0064,-0.97624 12.2436,-4.04506 14.812,-4.04506 2.241,0 2.001,1.95025 -0.578,4.69541 l -2.1835,2.32432 5.2427,21.34929 c 2.8835,11.7421 5.7561,21.86266 6.3836,22.49013 0.6274,0.62747 2.1277,1.14085 3.3338,1.14085 2.5226,0 3.8587,2.40901 2.0976,3.78179 -2.0389,1.58924 -7.4625,3.0931 -13.7006,3.79886 -5.1872,0.58686 -5.99,0.45514 -5.99,-0.98287 0,-0.9133 0.6875,-1.92437 1.5278,-2.24681 3.4751,-1.33353 3.4617,-3.84107 -0.093,-17.31514 -1.92,-7.27857 -4.2136,-14.87673 -5.0969,-16.8848 l -1.6059,-3.65103 -0.7646,3.5 c -0.4205,1.925 -1.5167,11.825 -2.436,22 -0.9192,10.175 -2.038,18.8756 -2.4862,19.33466 -0.4482,0.45907 -1.8392,0.68407 -3.0911,0.5 -1.6473,-0.24219 -5.2298,-4.5683 -12.9657,-15.65724 -10.4481,-14.97658 -14.4983,-20.01853 -15.3606,-19.12186 -0.6712,0.69792 7.3033,32.15693 8.5244,33.62823 0.6008,0.72392 2.1764,1.31621 3.5013,1.31621 2.7836,0 4.3004,2.77476 2.2419,4.10119 -2.9864,1.92431 -16.0902,4.37101 -17.2418,3.21935 z m 132.3886,-6.38314 c -4.1017,-1.07386 -7.865,-2.35987 -8.3629,-2.85781 -1.3928,-1.39278 0.1651,-3.07959 2.8442,-3.07959 3.178,0 3.8866,-1.57205 6.311,-14 2.6559,-13.61496 3.7178,-23.83958 2.3367,-22.5 -0.567,0.55 -4.6297,7.075 -9.0281,14.5 -11.7983,19.91655 -13.4932,22.46198 -15.1434,22.7425 -3.4254,0.5823 -4.3051,-1.6974 -7.0957,-18.38726 -2.9587,-17.69484 -4.7195,-25.35524 -5.828,-25.35524 -0.3651,0 -1.9556,6.6375 -3.5344,14.75 -1.5789,8.1125 -3.0685,15.51564 -3.3102,16.45143 -0.251,0.97153 0.6775,2.7367 2.1644,4.11467 3.5448,3.28521 3.4221,5.6839 -0.2907,5.6839 -4.7613,0 -16.1054,-3.90233 -16.1054,-5.54018 0,-0.84268 0.9512,-1.46629 2.25,-1.47513 5.0849,-0.0346 5.288,-0.55185 10.3341,-26.31935 l 3.8842,-19.83466 -3.4841,-2.84787 c -2.9083,-2.37714 -3.205,-2.95547 -1.7952,-3.4989 1.469,-0.56627 9.6579,0.6094 15.1183,2.17053 2.6274,0.75116 3.4141,3.5703 6.7455,24.17195 1.6508,10.20864 3.2525,18.81146 3.5594,19.11739 1.0001,0.99695 4.7964,-4.29016 13.8223,-19.25045 4.8782,-8.08533 9.4619,-15.19236 10.1861,-15.79339 1.6618,-1.37921 14.8879,0.80291 16.4778,2.7186 1.3663,1.64634 0.3221,3.38146 -2.035,3.38146 -1.0002,0 -2.3469,0.63667 -2.9927,1.41482 -0.6458,0.77815 -3.0262,10.90646 -5.2898,22.50736 l -4.1157,21.09254 2.2939,2.44176 c 2.5247,2.68744 2.168,5.57642 -0.6777,5.48846 -0.9798,-0.0303 -5.1373,-0.93368 -9.2389,-2.00754 z m 78.4575,0.0626 c -1.078,-1.74425 0.3466,-2.74991 4.8527,-3.42564 5.6142,-0.84191 8.6597,-2.92025 6.8973,-4.70704 -2.0326,-2.0608 -1.5267,-6.64886 0.8749,-7.93415 4.7071,-2.51917 9.8345,5.53719 6.952,10.92321 -2.3415,4.37503 -17.5778,8.37822 -19.5769,5.14362 z"
       id="path3348"
       inkscape:connector-curvature="0" />
  </g>
</svg>
